<svg xmlns="http://www.w3.org/2000/svg" width="256" height="256" fill="none" viewBox="0 0 256 256" id="vscode">
  <path fill="#EBEBEB" fill-rule="evenodd" d="M58.7042 58.7042C48.8797 68.5258 45.3321 82.2477 48.0614 94.8868C37.1932 101.897 30 114.109 30 128C30 141.892 37.1942 154.103 48.0614 161.112C45.3331 173.751 48.8807 187.473 58.7042 197.297C68.5267 207.119 82.2487 210.667 94.8878 207.94C101.897 218.806 114.109 226 128 226C141.892 226 154.103 218.806 161.112 207.94C173.751 210.667 187.473 207.119 197.297 197.297C207.119 187.473 210.667 173.751 207.94 161.112C218.806 154.103 226 141.892 226 128C226 114.109 218.806 101.897 207.94 94.8878C210.667 82.2487 207.119 68.5258 197.297 58.7032C187.473 48.8807 173.751 45.3331 161.112 48.0604C154.103 37.1942 141.892 30 128 30C114.109 30 101.897 37.1942 94.8878 48.0614C82.2487 45.3331 68.5267 48.8807 58.7042 58.7042Z" clip-rule="evenodd"></path>
  <path fill="#EBEBEB" fill-rule="evenodd" d="M48.0614 161.112C37.1942 154.103 30 141.892 30 128C30 114.109 37.1932 101.897 48.0614 94.8868C45.3321 82.2477 48.8797 68.5258 58.7042 58.7042C68.5267 48.8807 82.2487 45.3331 94.8878 48.0614C101.897 37.1942 114.109 30 128 30C141.892 30 154.103 37.1942 161.112 48.0604C173.751 45.3331 187.473 48.8807 197.297 58.7032C207.119 68.5258 210.667 82.2487 207.94 94.8878C218.806 101.897 226 114.109 226 128C226 141.892 218.806 154.103 207.94 161.112C210.667 173.751 207.119 187.473 197.297 197.297C187.473 207.119 173.751 210.667 161.112 207.94C154.103 218.806 141.892 226 128 226C114.109 226 101.897 218.806 94.8878 207.94C82.2487 210.667 68.5267 207.119 58.7042 197.297C48.8807 187.473 45.3331 173.751 48.0614 161.112Z" clip-rule="evenodd"></path>
  <path fill="url(#paint0_linear_533_3655)" d="M158.008 72.7863C158.008 69.0193 153.791 69.0192 151.916 69.4901C154.54 67.4183 157.618 67.9206 158.711 68.5484L184.054 80.9749C186.469 82.1589 188.001 84.6226 188.001 87.3224V169.071C188.001 171.807 186.428 174.296 183.964 175.461L160.117 186.737C158.477 187.443 154.915 189.186 151.916 186.737C155.665 187.444 157.696 184.775 158.008 182.97V72.7863Z"></path>
  <path fill="url(#paint1_linear_533_3655)" d="M152.22 69.4223C154.209 69.0291 158.008 69.2115 158.008 72.7864V100.925L81.1725 159.051C79.8295 160.067 77.9394 159.899 76.7955 158.661L68.8766 150.092C67.636 148.75 67.7228 146.648 69.0698 145.414L151.915 69.4902L152.22 69.4223Z"></path>
  <path fill="url(#paint2_linear_533_3655)" d="M158.008 155.302L81.1725 97.1757C79.8295 96.1597 77.9394 96.3282 76.7955 97.566L68.8766 106.135C67.636 107.477 67.7228 109.579 69.0698 110.813L151.915 186.737C155.664 187.443 157.695 184.775 158.008 182.97V155.302Z"></path>
  <defs>
    <linearGradient id="paint0_linear_533_3655" x1="169.958" x2="169.958" y1="68" y2="188" gradientUnits="userSpaceOnUse">
      <stop stop-color="#32B5F1"></stop>
      <stop offset="1" stop-color="#2B9FED"></stop>
    </linearGradient>
    <linearGradient id="paint1_linear_533_3655" x1="158.008" x2="72.379" y1="83.145" y2="155.022" gradientUnits="userSpaceOnUse">
      <stop stop-color="#0F6FB3"></stop>
      <stop offset=".271" stop-color="#1279B7"></stop>
      <stop offset=".421" stop-color="#1176B5"></stop>
      <stop offset=".618" stop-color="#0E69AC"></stop>
      <stop offset=".855" stop-color="#0F70AF"></stop>
      <stop offset="1" stop-color="#0F6DAD"></stop>
    </linearGradient>
    <linearGradient id="paint2_linear_533_3655" x1="72.951" x2="158.339" y1="102.215" y2="172.916" gradientUnits="userSpaceOnUse">
      <stop stop-color="#1791D2"></stop>
      <stop offset="1" stop-color="#1173C5"></stop>
    </linearGradient>
  </defs>
</svg>
